<svg xmlns="http://www.w3.org/2000/svg" xmlns:svgjs="http://svgjs.com/svgjs" xmlns:xlink="http://www.w3.org/1999/xlink" width="288" height="288"><svg xmlns="http://www.w3.org/2000/svg" width="288" height="288" viewBox="0 0 64 64"><path fill="#2d6cdf" d="M40,52a5,5,0,0,1-3.54-8.531L47.9,32,36.46,20.53A5,5,0,0,1,40,12h.006a4.959,4.959,0,0,1,3.534,1.47l14.963,15a5.006,5.006,0,0,1,0,7.061l-14.963,15A4.964,4.964,0,0,1,40,52Zm0-38a3,3,0,0,0-2.124,5.118L50.021,31.294a1,1,0,0,1,0,1.412L37.876,44.881a3,3,0,0,0,.005,4.243,3.075,3.075,0,0,0,4.243-.005l14.963-15a3.005,3.005,0,0,0,0-4.237l-14.963-15A2.979,2.979,0,0,0,40,14Z" class="color31c2e8 svgShape"/><path fill="#2d6cdf" d="M24,52a4.964,4.964,0,0,1-3.54-1.469L5.5,35.531a5.008,5.008,0,0,1,0-7.062l14.963-15a5,5,0,1,1,7.08,7.061L16.1,32,27.54,43.469A5,5,0,0,1,24,52Zm0-38a2.988,2.988,0,0,0-2.124.88l-14.963,15a3.006,3.006,0,0,0,0,4.238l14.963,15a3.076,3.076,0,0,0,4.244.005,3.005,3.005,0,0,0,0-4.243L13.979,32.706a1,1,0,0,1,0-1.412L26.124,19.119A3,3,0,0,0,24,14Z" class="color000 svgShape"/></svg></svg>