<svg id="SvgjsSvg1011" width="288" height="288" xmlns="http://www.w3.org/2000/svg" version="1.1" xmlns:xlink="http://www.w3.org/1999/xlink" xmlns:svgjs="http://svgjs.com/svgjs"><defs id="SvgjsDefs1012"></defs><g id="SvgjsG1013"><svg xmlns="http://www.w3.org/2000/svg" viewBox="0 0 24 24" width="288" height="288"><path d="M21.92,12.38a1,1,0,0,0,0-.76,1,1,0,0,0-.21-.33l-7-7a1,1,0,0,0-1.42,1.42L18.59,11H3a1,1,0,0,0,0,2H18.59l-5.3,5.29a1,1,0,0,0,0,1.42,1,1,0,0,0,1.42,0l7-7A1,1,0,0,0,21.92,12.38Z" data-name="arrow right" fill="#dedede" class="color000 svgShape"></path></svg></g></svg>