<svg id="SvgjsSvg1001" width="288" height="288" xmlns="http://www.w3.org/2000/svg" version="1.1" xmlns:xlink="http://www.w3.org/1999/xlink" xmlns:svgjs="http://svgjs.com/svgjs"><defs id="SvgjsDefs1002"></defs><g id="SvgjsG1008"><svg xmlns="http://www.w3.org/2000/svg" width="288" height="288" viewBox="0 0 16 16"><path d="M 6 1.0058594 C 5.780203 1.0058594 5.3616389 0.9845625 4.9355469 1.1015625 C 4.7225009 1.1595625 4.4945244 1.2578719 4.3027344 1.4511719 C 4.1109454 1.6444719 3.9863281 1.9412469 3.9863281 2.2480469 L 3.9863281 5.9980469 C 3.9863281 5.9270469 3.9827325 6.0080281 3.9140625 6.1113281 C 3.8454225 6.2169281 3.7348715 6.3568406 3.6171875 6.4941406 C 3.4995025 6.6314406 3.3754231 6.76935 3.2675781 6.90625 C 3.2136581 6.97425 3.1643095 7.0412469 3.1171875 7.1230469 C 3.0700675 7.2050469 3.0078135 7.2953344 3.0078125 7.4902344 C 3.0078125 7.6876344 3.0799225 7.7918469 3.1328125 7.8730469 C 3.1857025 7.9540469 3.2392889 8.0151719 3.2949219 8.0761719 C 3.4061879 8.1981719 3.527291 8.3147469 3.640625 8.4355469 C 3.867292 8.6769469 4.0019531 8.9240469 4.0019531 8.9980469 L 4.0019531 12.773438 C 4.0019531 13.106837 4.1577128 13.422228 4.3710938 13.611328 C 4.5844738 13.800428 4.825302 13.887853 5.046875 13.939453 C 5.490021 14.042553 5.943456 14.005859 6 14.005859 L 6 13.005859 C 5.814356 13.005859 5.5187145 13.019891 5.2734375 12.962891 C 5.1507985 12.933891 5.0628451 12.887928 5.0332031 12.861328 C 5.0035631 12.835328 5.0019531 12.851484 5.0019531 12.771484 L 5.0019531 8.9980469 C 5.0019531 8.4177469 4.6393856 8.0379 4.3691406 7.75 C 4.2609696 7.6347 4.1747854 7.5489031 4.0996094 7.4707031 C 4.1748794 7.3787031 4.2676181 7.2700781 4.3769531 7.1425781 C 4.5039171 6.9943781 4.6390572 6.8349031 4.7539062 6.6582031 C 4.8687563 6.4815031 4.9863281 6.2923469 4.9863281 5.9980469 L 4.9863281 2.2460938 C 4.9863281 2.1620938 4.9930287 2.1732969 5.0117188 2.1542969 C 5.0304088 2.1352969 5.0925687 2.0954062 5.1992188 2.0664062 C 5.4125267 2.0084063 5.751047 2.0058594 6 2.0058594 L 6 1.0058594 z M 9.9746094 1.0078125 L 9.9746094 2.0058594 C 10.223562 2.0058594 10.562083 2.0073594 10.775391 2.0683594 C 10.882044 2.0973594 10.944202 2.13725 10.962891 2.15625 C 10.981581 2.17525 10.988281 2.1660469 10.988281 2.2480469 L 10.988281 6 C 10.988281 6.5782 11.354577 6.92935 11.623047 7.21875 C 11.725137 7.32875 11.804548 7.4110344 11.878906 7.4902344 C 11.804156 7.5632344 11.727027 7.6361344 11.625 7.7402344 C 11.346604 8.0240344 10.972656 8.4112 10.972656 9 L 10.972656 12.773438 C 10.972656 12.854437 10.971056 12.836281 10.941406 12.863281 C 10.911766 12.889281 10.823811 12.936244 10.701172 12.964844 C 10.455894 13.021844 10.160254 13.007812 9.9746094 13.007812 L 9.9746094 14.007812 C 10.031149 14.007812 10.484588 14.042453 10.927734 13.939453 C 11.149307 13.887453 11.390135 13.802381 11.603516 13.613281 C 11.816896 13.424181 11.972656 13.106837 11.972656 12.773438 L 11.972656 9 C 11.972656 8.913 12.107445 8.6764063 12.337891 8.4414062 C 12.453113 8.3239062 12.577117 8.2109969 12.691406 8.0917969 C 12.748556 8.0317969 12.804101 7.971825 12.859375 7.890625 C 12.914645 7.809625 12.990234 7.7014 12.990234 7.5 C 12.990234 7.3012 12.920964 7.2024938 12.869141 7.1210938 C 12.817311 7.0400937 12.764852 6.9753094 12.708984 6.9121094 C 12.597249 6.7859094 12.471847 6.6644625 12.355469 6.5390625 C 12.122713 6.2881625 11.988281 6.0121 11.988281 6 L 11.988281 2.2480469 C 11.988281 1.9412469 11.863665 1.6444719 11.671875 1.4511719 C 11.480085 1.2578719 11.252109 1.1618156 11.039062 1.1035156 C 10.612972 0.98701563 10.194407 1.0078125 9.9746094 1.0078125 z " color="#000" enable-background="accumulate" font-family="sans-serif" font-weight="400" overflow="visible" style="line-height:normal;text-indent:0;text-align:start;text-decoration-line:none;text-decoration-style:solid;text-decoration-color:#000;text-transform:none;block-progression:tb;white-space:normal;isolation:auto;mix-blend-mode:normal;solid-color:#000;solid-opacity:1" fill="#2d6cdf" class="color000 svgShape"></path></svg></g></svg>