<svg id="SvgjsSvg1027" width="288" height="288" xmlns="http://www.w3.org/2000/svg" version="1.1" xmlns:xlink="http://www.w3.org/1999/xlink" xmlns:svgjs="http://svgjs.com/svgjs"><defs id="SvgjsDefs1028"></defs><g id="SvgjsG1029"><svg xmlns="http://www.w3.org/2000/svg" viewBox="0 0 16 16" width="288" height="288"><path d="M5 4.5a.5.5 0 0 1-.5-.5V2a.5.5 0 0 1 1 0v2a.5.5 0 0 1-.5.5zM11 4.5a.5.5 0 0 1-.5-.5V2a.5.5 0 0 1 1 0v2a.5.5 0 0 1-.5.5z" fill="#2d6cdf" class="color000 svgShape"></path><path d="M13 14.5H3c-.827 0-1.5-.673-1.5-1.5V4c0-.827.673-1.5 1.5-1.5h10c.827 0 1.5.673 1.5 1.5v9c0 .827-.673 1.5-1.5 1.5zM3 3.5a.5.5 0 0 0-.5.5v9a.5.5 0 0 0 .5.5h10a.5.5 0 0 0 .5-.5V4a.5.5 0 0 0-.5-.5H3z" fill="#2d6cdf" class="color000 svgShape"></path><path d="M14 6.5H2a.5.5 0 0 1 0-1h12a.5.5 0 0 1 0 1zM5.5 7.5h1v1h-1zM7.5 7.5h1v1h-1zM9.5 7.5h1v1h-1zM11.5 7.5h1v1h-1zM3.5 9.5h1v1h-1zM5.5 9.5h1v1h-1zM7.5 9.5h1v1h-1zM9.5 9.5h1v1h-1zM11.5 9.5h1v1h-1zM3.5 11.5h1v1h-1zM5.5 11.5h1v1h-1zM7.5 11.5h1v1h-1z" fill="#2d6cdf" class="color000 svgShape"></path></svg></g></svg>