<svg id="SvgjsSvg1001" width="288" height="288" xmlns="http://www.w3.org/2000/svg" version="1.1" xmlns:xlink="http://www.w3.org/1999/xlink" xmlns:svgjs="http://svgjs.com/svgjs"><defs id="SvgjsDefs1002"></defs><g id="SvgjsG1008"><svg xmlns="http://www.w3.org/2000/svg" data-name="Layer 1" viewBox="0 0 40 40" width="288" height="288"><path fill="#848484" d="M19.35,3A17.08,17.08,0,1,0,36.42,20.05,17.1,17.1,0,0,0,19.35,3Zm0,32.16A15.08,15.08,0,1,1,34.42,20.05,15.1,15.1,0,0,1,19.35,35.13Z" class="color010101 svgShape"></path><path fill="#848484" d="M25.4,12.52a1,1,0,0,0-1.41,0L19.47,17a1,1,0,1,0,1.42,1.42l3.81-3.81,1.84,1.84L17.72,25.3,15.38,23a1.08,1.08,0,0,0-.18-.24L12.28,19.8,14.12,18,17,20.88a1,1,0,0,0,1.42,0,1,1,0,0,0,0-1.41l-3.63-3.63a1,1,0,0,0-1.41,0l-3.26,3.25a1,1,0,0,0,0,1.42l3.42,3.42a1.88,1.88,0,0,0,.18.24L17,27.42a1,1,0,0,0,.71.29,1,1,0,0,0,.71-.29L28.66,17.19a1,1,0,0,0,0-1.42Z" class="color010101 svgShape"></path></svg></g></svg>