<svg id="SvgjsSvg1001" width="288" height="288" xmlns="http://www.w3.org/2000/svg" version="1.1" xmlns:xlink="http://www.w3.org/1999/xlink" xmlns:svgjs="http://svgjs.com/svgjs"><defs id="SvgjsDefs1002"></defs><g id="SvgjsG1008"><svg xmlns="http://www.w3.org/2000/svg" width="288" height="288" viewBox="0 0 24 24"><path d="M12 14c-.1 0-.2 0-.3-.1l-11-4C.3 9.8 0 9.4 0 9s.3-.8.7-.9l11-4c.2-.1.5-.1.7 0l11 4c.3.1.6.5.6.9s-.3.8-.7.9l-11 4c-.1.1-.2.1-.3.1zM3.9 9l8.1 2.9L20.1 9 12 6.1 3.9 9z" fill="#2d6cdf" class="color000 svgShape"></path><path d="M19 20h-7c-.6 0-1-.4-1-1s.4-1 1-1h6c-.1-2.6-.7-4.8-1.7-6.4-.3-.5-.1-1.1.3-1.4.5-.3 1.1-.1 1.4.3 1.3 2.1 2 5 2 8.4 0 .7-.4 1.1-1 1.1z" fill="#2d6cdf" class="color000 svgShape"></path><path d="M12 20H5c-.6 0-1-.4-1-1 0-3.4.7-6.3 2-8.4.3-.5.9-.6 1.4-.3.5.3.6.9.3 1.4-1 1.6-1.6 3.8-1.7 6.4h6c.6 0 1 .4 1 1s-.4.9-1 .9zm10 0c-.6 0-1-.4-1-1V9c0-.6.4-1 1-1s1 .4 1 1v10c0 .6-.4 1-1 1z" fill="#2d6cdf" class="color000 svgShape"></path></svg></g></svg>