<svg xmlns="http://www.w3.org/2000/svg" xmlns:svgjs="http://svgjs.com/svgjs" xmlns:xlink="http://www.w3.org/1999/xlink" width="288" height="288"><svg xmlns="http://www.w3.org/2000/svg" width="288" height="288" viewBox="0 0 24 24"><path fill="#e2e2e2" d="M7 12c0 2.8 2.2 5 5 5s5-2.2 5-5-2.2-5-5-5-5 2.2-5 5zm5-3c1.7 0 3 1.3 3 3s-1.3 3-3 3-3-1.3-3-3 1.3-3 3-3zm1-4V3c0-.6-.4-1-1-1s-1 .4-1 1v2c0 .6.4 1 1 1s1-.4 1-1zm6.1-.1c-.4-.4-1-.4-1.4 0l-1.4 1.4c-.4.4-.4 1 0 1.4.2.2.5.3.7.3s.5-.1.7-.3l1.4-1.4c.4-.3.4-1 0-1.4zM21 11h-2c-.6 0-1 .4-1 1s.4 1 1 1h2c.6 0 1-.4 1-1s-.4-1-1-1zm-3.3 5.2c-.4-.4-1-.4-1.4 0s-.4 1 0 1.4l1.4 1.4c.2.2.5.3.7.3s.5-.1.7-.3c.4-.4.4-1 0-1.4l-1.4-1.4zM11 19v2c0 .6.4 1 1 1s1-.4 1-1v-2c0-.6-.4-1-1-1s-1 .4-1 1zm-6.1.1c.2.2.5.3.7.3s.5-.1.7-.3l1.4-1.4c.4-.4.4-1 0-1.4s-1-.4-1.4 0l-1.4 1.4c-.4.3-.4 1 0 1.4zM2 12c0 .6.4 1 1 1h2c.6 0 1-.4 1-1s-.4-1-1-1H3c-.6 0-1 .4-1 1zm4.3-7.1c-.4-.4-1-.4-1.4 0s-.4 1 0 1.4l1.4 1.4c.2.3.5.4.8.4s.5-.1.7-.3c.4-.4.4-1 0-1.4L6.3 4.9z" class="color000 svgShape"/></svg></svg>