<svg id="SvgjsSvg1201" width="288" height="288" xmlns="http://www.w3.org/2000/svg" version="1.1" xmlns:xlink="http://www.w3.org/1999/xlink" xmlns:svgjs="http://svgjs.com/svgjs"><defs id="SvgjsDefs1202"></defs><g id="SvgjsG1203"><svg xmlns="http://www.w3.org/2000/svg" width="288" height="288" viewBox="0 0 15 16"><path fill="#2d6cdf" fill-rule="evenodd" d="M10 12h3V2h-3v10zm-4-2h3V2H6v8zm-4 4h3V2H2v12zm-1 1h13V1H1v14zM14 0H1a1 1 0 0 0-1 1v14a1 1 0 0 0 1 1h13a1 1 0 0 0 1-1V1a1 1 0 0 0-1-1z" class="color000 svgShape"></path></svg></g></svg>