<svg id="SvgjsSvg1011" width="288" height="288" xmlns="http://www.w3.org/2000/svg" version="1.1" xmlns:xlink="http://www.w3.org/1999/xlink" xmlns:svgjs="http://svgjs.com/svgjs"><defs id="SvgjsDefs1012"></defs><g id="SvgjsG1013"><svg xmlns="http://www.w3.org/2000/svg" data-name="Layer 1" viewBox="0 0 24 24" width="288" height="288"><path d="M8,6A1,1,0,1,0,7,5,1,1,0,0,0,8,6ZM21,19H14.82A3,3,0,0,0,13,17.18V15h4a3,3,0,0,0,3-3V10a3,3,0,0,0-.78-2A3,3,0,0,0,20,6V4a3,3,0,0,0-3-3H7A3,3,0,0,0,4,4V6a3,3,0,0,0,.78,2A3,3,0,0,0,4,10v2a3,3,0,0,0,3,3h4v2.18A3,3,0,0,0,9.18,19H3a1,1,0,0,0,0,2H9.18a3,3,0,0,0,5.64,0H21a1,1,0,0,0,0-2ZM6,4A1,1,0,0,1,7,3H17a1,1,0,0,1,1,1V6a1,1,0,0,1-1,1H7A1,1,0,0,1,6,6Zm1,9a1,1,0,0,1-1-1V10A1,1,0,0,1,7,9H17a1,1,0,0,1,1,1v2a1,1,0,0,1-1,1Zm5,8a1,1,0,1,1,1-1A1,1,0,0,1,12,21ZM8,10a1,1,0,1,0,1,1A1,1,0,0,0,8,10Z" fill="#2d6cdf" class="color000 svgShape"></path></svg></g></svg>